<svg width="423" height="240" viewBox="0 0 423 240" fill="none" xmlns="http://www.w3.org/2000/svg">
<path d="M418.916 225.993C418.856 226.172 418.796 226.351 418.737 226.545C418.215 228.097 417.634 229.664 416.992 231.261C416.903 231.484 416.813 231.708 416.724 231.932C415.949 233.842 415.099 235.767 414.159 237.737C414.145 237.767 414.145 237.782 414.13 237.811L15.7616 238.349C15.851 236.752 -20.6191 185.212 17.5508 135.044C55.7206 84.8764 100.347 111.915 109.501 76.6096C111.484 68.9845 114.66 62.5532 118.746 57.2111C118.954 56.9276 119.178 56.6441 119.402 56.3606C119.968 55.6443 120.565 54.943 121.176 54.2715C121.34 54.0775 121.519 53.8984 121.683 53.7045C123.219 52.0332 124.874 50.4813 126.588 49.0637C126.931 48.7802 127.289 48.4967 127.647 48.2132C148.849 31.62 182.173 32.3362 205.985 42.1996C237.609 55.316 295.475 32.5153 344.932 49.1682C345.752 49.4368 346.572 49.7352 347.377 50.0337C349.092 50.6604 350.792 51.3319 352.476 52.063C356.159 53.6448 359.365 55.4503 362.168 57.4349C362.57 57.7185 362.958 58.002 363.346 58.2855C397.609 84.1601 367.148 138.386 384.846 146.773C395.954 152.04 412.34 163.858 419.423 183.033C419.512 183.272 419.602 183.525 419.691 183.764C419.781 184.033 419.885 184.316 419.974 184.585C420.064 184.839 420.138 185.077 420.213 185.331C423.806 196.507 424.239 209.997 418.916 225.993Z" fill="#EBF3FA"/>
<path d="M101.574 206.72C101.574 206.72 116.671 180.412 112.397 174.115C106.494 165.412 96.8347 190.205 96.4774 187.857C93.0941 165.691 93.8021 137.735 77.9848 133.499C68.993 131.091 78.5786 154.38 77.4628 160.378C76.347 166.376 61.3879 144.957 52.1775 133.624C42.9671 122.292 37.3244 128.544 42.6636 142.293C47.8267 155.588 66.5347 171.167 62.3471 172.5C58.1595 173.833 34.6767 155.318 31.1384 162.138C26.7991 170.507 62.9702 185.28 59.3406 186.945C55.7109 188.611 38.481 180.777 38.481 187.445C38.481 194.112 62.2981 195.776 61.6717 198.658C60.6684 203.327 45.7126 191.376 44.5429 197.852C43.3472 204.477 64.8462 204.98 64.0958 210.161C63.6635 213.138 58.2492 210.02 57.2704 214.113C55.0372 223.448 88.9179 236.526 88.9179 236.526L101.574 206.72Z" fill="#82B378"/>
<path d="M126.909 212.675C132.053 215.085 130.661 221.068 130.661 221.068C130.661 221.068 144.606 210.179 149.819 216.535C155.033 222.89 152.293 235.347 146.178 237.373C140.064 239.399 86.8817 237.978 86.8817 237.978C86.8817 237.978 122.283 210.509 126.909 212.675Z" fill="#82B378"/>
<path d="M90.4709 227.041L90.9603 226.62C79.7875 213.01 75.0159 195.952 72.9816 184.033C70.7728 171.102 71.2198 161.268 71.2247 161.17L70.5461 161.048C70.5461 161.148 70.091 171.046 72.3095 184.05C74.3634 196.072 79.179 213.284 90.4709 227.041Z" fill="#A8D29F"/>
<path d="M72.7224 159.009C73.0487 161.946 72.2934 164.485 70.8236 166.115C68.8458 164.038 67.5985 161.374 67.2706 158.525C66.9443 155.588 67.6996 153.048 69.1678 151.419C71.1467 153.495 72.3946 156.16 72.7224 159.009Z" fill="#A8D29F"/>
<path d="M68.3633 165.851C70.2785 168.277 71.2605 171.123 71.2589 173.655C68.9375 173.252 66.4857 171.753 64.5705 169.327C62.6553 166.902 61.6749 164.057 61.6749 161.523C63.9963 161.928 66.4481 163.427 68.3633 165.851Z" fill="#A8D29F"/>
<path d="M66.5638 174.024C69.049 175.418 71.004 177.595 72.1249 180.215C70.1086 181.017 67.5311 180.809 64.9945 179.41C62.508 178.014 60.5533 175.835 59.4349 173.211C61.4512 172.417 64.0287 172.626 66.5638 174.024Z" fill="#A8D29F"/>
<path d="M71.0979 187.479C72.1767 187.992 73.0546 188.849 73.5938 189.915C72.7782 190.319 71.7048 190.316 70.6102 189.809C69.5313 189.297 68.6532 188.44 68.1143 187.375C68.9267 186.965 70.0017 186.965 71.0979 187.479Z" fill="#A8D29F"/>
<path d="M72.4739 192.497C73.5534 193.009 74.4321 193.865 74.9715 194.931C74.1558 195.337 73.0824 195.332 71.9861 194.825C70.9072 194.313 70.0292 193.457 69.4902 192.391C70.3026 191.986 71.3793 191.99 72.4739 192.497Z" fill="#A8D29F"/>
<path d="M74.548 171.38C76.3425 170.094 78.5659 169.871 80.6344 170.556C80.5366 172.797 79.5562 174.874 77.7666 176.158C75.977 177.442 73.7503 177.667 71.6851 176.982C71.7797 174.742 72.7585 172.664 74.548 171.38Z" fill="#A8D29F"/>
<path d="M75.7386 179.03C77.533 177.745 79.7565 177.521 81.825 178.206C81.7271 180.446 80.7467 182.524 78.9572 183.808C77.1676 185.092 74.9409 185.319 72.8707 184.624C72.9702 182.397 73.949 180.314 75.7386 179.03Z" fill="#A8D29F"/>
<path d="M76.521 190.078C77.6858 189.242 79.1311 189.099 80.4835 189.541C80.4182 191.001 79.7804 192.352 78.6156 193.188C77.4509 194.025 76.0055 194.167 74.6548 193.725C74.7184 192.267 75.3563 190.914 76.521 190.078Z" fill="#A8D29F"/>
<path d="M98.8965 238.24C98.8965 238.24 82.5622 217.27 75.7319 214.056C68.4562 210.63 74.7645 222.496 74.7645 222.496C74.7645 222.496 59.2083 207.214 55.5542 211.03C51.9 214.846 55.8005 218.417 55.8005 218.417C55.8005 218.417 42.7745 215.997 40.8756 220.877C37.9572 228.381 59.3829 232.105 59.3829 232.105C59.3829 232.105 49.1186 229.852 51.1725 234.495C54.272 241.496 98.8965 238.24 98.8965 238.24Z" fill="#A8D29F"/>
<path d="M86.8856 237.925C86.8856 237.925 112.913 239.765 117.982 235.106C123.05 230.447 118.023 222.002 118.023 222.002C118.023 222.002 126.954 214.942 126.815 210.332C126.677 205.721 120.856 208.061 120.856 208.061C120.856 208.061 130.719 195.363 128.38 192.947C124.022 188.449 112.62 201.648 112.62 201.648C112.62 201.648 116.003 195.369 112.434 194.372C107.05 192.87 103.091 208.354 103.091 208.354C103.091 208.354 104.094 202.239 100.385 203.051C93.7257 204.508 86.8856 237.925 86.8856 237.925Z" fill="#A8D29F"/>
<path d="M317.113 165.185L319.214 160.091C320.845 156.339 325.015 154.554 328.532 156.094C337.39 159.975 341.243 170.776 337.134 180.219L334.131 187.128C332.814 190.152 333.273 193.48 335.048 195.826C336.659 197.957 336.922 200.919 335.805 203.493L334.221 207.134C333.391 209.049 332.156 210.761 330.602 212.153C329.047 213.544 327.21 214.583 325.216 215.196C324.007 215.576 322.894 216.213 321.955 217.065C321.017 217.916 320.273 218.96 319.777 220.126L317.535 225.281C315.056 230.978 308.713 233.699 303.369 231.358L300.319 230.022C294.973 227.681 292.651 221.164 295.128 215.465C299.136 208.653 298.816 203.568 297.397 200.12C296.352 197.559 295.83 194.816 295.864 192.05C295.897 189.285 296.484 186.555 297.591 184.02L297.908 183.293C299.062 180.627 300.772 178.237 302.923 176.284C305.075 174.331 307.617 172.859 310.382 171.967C312.803 171.182 315.327 169.293 317.113 165.185Z" fill="#82B378"/>
<path d="M278.928 238.728C283.226 233.134 307.117 203.428 322.484 198.434C339.45 192.922 323.463 214.814 323.463 214.814C323.463 214.814 353.564 181.787 364.611 184.764C374.737 187.493 364.611 207.966 364.611 207.966C364.611 207.966 376.016 196.63 389.846 196.63C403.306 196.63 380.5 237.847 379.267 240L278.928 238.728Z" fill="#A8D29F"/>
<path d="M266.326 207.449C266.326 207.449 253.545 179.227 257.817 172.931C263.723 164.229 271.065 190.934 271.424 188.591C274.806 166.425 274.098 138.469 289.917 134.233C298.908 131.825 289.321 155.113 290.439 161.112C291.556 167.11 306.514 145.691 315.724 134.358C324.934 123.025 330.577 129.278 325.236 143.027C320.073 156.322 301.367 171.901 305.554 173.234C309.742 174.567 329.861 157.622 333.409 164.448C337.747 172.816 307.647 184.701 311.277 186.368C314.907 188.035 331.959 176.862 331.959 186.223C331.959 192.89 306.416 196.203 307.036 199.085C308.037 203.754 322.187 192.112 323.349 198.588C324.543 205.213 304.538 206.195 305.288 211.376C305.721 214.353 310.732 210.682 312.032 214.686C314.969 223.73 286.258 237.035 286.258 237.035L266.326 207.449Z" fill="#82B378"/>
<path d="M369.619 174.168C357.327 193.442 348.355 215.808 343.227 238.553L342.01 238.54C347.12 216.269 356.395 193.73 368.674 174.477C371.527 170.002 374.609 164.689 379.952 162.948C380.054 162.916 380.093 163.072 379.996 163.111C375.108 164.948 372.289 169.984 369.619 174.168Z" fill="#82B378"/>
<path d="M346.025 238.594C360.283 219.129 377.283 201.831 396.498 187.239C396.695 187.087 396.965 187.434 396.764 187.588C377.901 202.123 361.236 219.306 347.283 238.604L346.025 238.594Z" fill="#82B378"/>
<path d="M370.743 162.216C371.059 162.684 372.272 163.903 372.627 165.503C373.107 167.022 372.728 168.929 372.688 168.857C372.596 168.895 374.09 167.627 374.557 165.611C375.161 163.678 374.738 160.997 373.986 160.108C372.689 158.1 370.422 157.896 369.981 158.87C369.513 159.838 370.107 161.154 370.743 162.216Z" fill="#82B378"/>
<path d="M373.686 179.42C373.226 179.094 372.035 177.854 370.447 177.462C368.943 176.952 367.041 177.299 367.108 177.335C367.067 177.426 368.359 175.953 370.371 175.524C372.309 174.957 374.973 175.433 375.844 176.204C377.819 177.547 377.976 179.824 376.997 180.247C376.031 180.7 374.731 180.08 373.686 179.42Z" fill="#82B378"/>
<path d="M369.246 186.96C368.786 186.633 367.597 185.394 366.008 185.002C364.504 184.491 362.602 184.839 362.668 184.875C362.628 184.966 363.92 183.493 365.931 183.064C367.869 182.496 370.533 182.973 371.404 183.744C373.38 185.087 373.538 187.366 372.558 187.787C371.592 188.24 370.292 187.624 369.246 186.96Z" fill="#82B378"/>
<path d="M385.083 204.449C384.623 204.123 383.432 202.883 381.845 202.491C380.341 201.981 378.439 202.328 378.504 202.364C378.465 202.456 379.757 200.982 381.766 200.553C383.704 199.986 386.368 200.462 387.238 201.234C389.213 202.575 389.372 204.854 388.393 205.276C387.429 205.731 386.129 205.11 385.083 204.449Z" fill="#82B378"/>
<path d="M393.176 197.298C392.716 196.971 391.527 195.73 389.938 195.34C388.434 194.829 386.532 195.177 386.599 195.213C386.558 195.304 387.852 193.831 389.862 193.402C391.8 192.834 394.463 193.312 395.335 194.082C397.31 195.425 397.467 197.704 396.488 198.126C395.522 198.576 394.222 197.957 393.176 197.298Z" fill="#82B378"/>
<path d="M364.532 170.748C364.917 171.159 366.305 172.172 366.909 173.696C367.62 175.12 367.545 177.056 367.494 176.997C367.411 177.05 368.687 175.562 368.83 173.498C369.124 171.493 368.284 168.912 367.403 168.154C365.806 166.376 363.535 166.534 363.253 167.565C362.943 168.594 363.736 169.8 364.532 170.748Z" fill="#82B378"/>
<path d="M358.002 179.304C358.552 179.596 360.472 180.119 361.428 181.568C362.521 182.85 362.661 185.044 362.588 184.994C362.485 185.088 363.957 182.873 363.893 180.511C364.028 178.149 362.63 175.63 361.397 175.164C359.113 173.868 356.193 175.023 355.953 176.296C355.686 177.579 356.857 178.583 358.002 179.304Z" fill="#82B378"/>
<path d="M351.13 192.25C351.721 192.446 353.703 192.645 354.895 193.902C356.189 194.982 356.69 197.123 356.613 197.09C356.528 197.201 357.608 194.774 357.148 192.452C356.887 190.1 355.086 187.852 353.792 187.601C351.324 186.708 348.639 188.341 348.616 189.635C348.559 190.946 349.882 191.738 351.13 192.25Z" fill="#82B378"/>
<path d="M371.464 201.273C371.895 201.542 373.422 202.089 374.13 203.311C374.946 204.417 374.934 206.209 374.877 206.169C374.789 206.239 376.11 204.526 376.194 202.598C376.438 200.682 375.443 198.554 374.466 198.103C372.683 196.919 370.243 197.692 369.975 198.713C369.678 199.741 370.574 200.625 371.464 201.273Z" fill="#82B378"/>
<path d="M382.052 165.248C381.794 165.034 381.143 164.25 380.222 163.943C379.354 163.574 378.214 163.693 378.251 163.721C378.223 163.773 379.052 162.958 380.264 162.793C381.435 162.543 382.99 162.941 383.473 163.436C384.582 164.317 384.576 165.672 383.979 165.883C383.382 166.093 382.643 165.684 382.052 165.248Z" fill="#82B378"/>
<path d="M379.585 159.745C379.597 160.081 379.82 161.076 379.494 161.993C379.254 162.906 378.464 163.74 378.466 163.694C378.407 163.683 379.557 163.531 380.424 162.66C381.337 161.882 381.97 160.402 381.874 159.723C381.858 158.304 380.784 157.48 380.256 157.829C379.727 158.179 379.601 159.011 379.585 159.745Z" fill="#82B378"/>
<path d="M399.003 190.01C398.746 189.796 398.096 189.012 397.173 188.705C396.305 188.338 395.167 188.455 395.202 188.483C395.175 188.535 396.003 187.721 397.217 187.557C398.388 187.305 399.943 187.703 400.424 188.199C401.534 189.079 401.529 190.434 400.93 190.646C400.331 190.858 399.594 190.447 399.003 190.01Z" fill="#82B378"/>
<path d="M396.029 184.459C396.067 184.785 396.37 185.764 396.12 186.707C395.957 187.637 395.238 188.532 395.235 188.487C395.176 188.487 396.308 188.227 397.104 187.296C397.951 186.446 398.463 184.919 398.311 184.245C398.177 182.831 397.04 182.1 396.543 182.49C396.045 182.88 395.99 183.725 396.029 184.459Z" fill="#82B378"/>
<path d="M382.641 216.424C382.722 216.941 383.259 218.442 382.928 219.925C382.732 221.393 381.669 222.83 381.66 222.759C381.569 222.759 383.319 222.284 384.502 220.78C385.768 219.398 386.47 216.984 386.189 215.941C385.89 213.744 384.068 212.679 383.318 213.318C382.567 213.958 382.525 215.281 382.641 216.424Z" fill="#82B378"/>
<path d="M371.576 220.398C371.658 220.915 372.194 222.416 371.863 223.899C371.667 225.367 370.604 226.806 370.596 226.734C370.504 226.734 372.255 226.258 373.437 224.754C374.703 223.373 375.405 220.957 375.124 219.915C374.826 217.719 373.004 216.652 372.253 217.292C371.503 217.931 371.46 219.256 371.576 220.398Z" fill="#82B378"/>
<path d="M360.334 225.427C360.416 225.943 360.952 227.445 360.621 228.928C360.426 230.396 359.36 231.834 359.354 231.762C359.262 231.762 361.011 231.287 362.196 229.781C363.461 228.401 364.153 225.985 363.881 224.943C363.584 222.747 361.76 221.68 361.011 222.32C360.262 222.959 360.218 224.284 360.334 225.427Z" fill="#82B378"/>
<path d="M385.942 226.796C385.714 226.368 385.275 224.962 384.206 224.055C383.249 223.088 381.661 222.62 381.696 222.677C381.63 222.731 383.182 222.098 384.891 222.543C386.593 222.853 388.451 224.24 388.824 225.165C389.826 226.951 389.079 228.753 388.172 228.706C387.265 228.659 386.492 227.703 385.942 226.796Z" fill="#82B378"/>
<path d="M374.433 230.883C374.206 230.457 373.767 229.049 372.699 228.142C371.739 227.175 370.152 226.706 370.186 226.763C370.121 226.819 371.674 226.186 373.382 226.631C375.083 226.94 376.943 228.328 377.315 229.253C378.318 231.039 377.571 232.842 376.663 232.793C375.743 232.765 374.984 231.79 374.433 230.883Z" fill="#82B378"/>
<path d="M394.706 222.589C394.507 222.351 394.046 221.526 393.256 221.098C392.527 220.617 391.462 220.534 391.497 220.565C391.465 220.609 392.356 220.005 393.488 220.059C394.595 220.026 395.946 220.651 396.302 221.183C397.166 222.172 396.935 223.405 396.356 223.493C395.776 223.581 395.174 223.085 394.706 222.589Z" fill="#82B378"/>
<path d="M393.379 217.16C393.333 217.467 393.379 218.413 392.921 219.193C392.55 219.984 391.692 220.612 391.7 220.57C391.648 220.55 392.723 220.597 393.658 219.958C394.619 219.402 395.444 218.164 395.47 217.521C395.692 216.224 394.85 215.294 394.312 215.524C393.774 215.754 393.514 216.498 393.379 217.16Z" fill="#82B378"/>
<path d="M393.95 220.229C390.408 220.561 386.899 221.189 383.461 222.105C377.182 223.756 371.143 226.193 365.2 228.784C362.278 230.058 359.339 231.314 356.472 232.71C355.133 233.363 353.784 234.015 352.549 234.854C350.885 235.981 348.288 238.24 347.981 238.598L349.347 238.638C350.278 237.878 353.701 234.988 358.453 232.699C369.709 227.275 381.409 221.712 393.967 220.332C393.979 220.329 393.99 220.321 393.998 220.31C394.005 220.299 394.008 220.286 394.006 220.273C394.004 220.26 393.997 220.248 393.987 220.24C393.976 220.232 393.963 220.228 393.95 220.229Z" fill="#82B378"/>
<path d="M287.976 0H135.717C130.892 0 126.98 3.91183 126.98 8.73731V229.519C126.98 234.345 130.892 238.257 135.717 238.257H287.976C292.801 238.257 296.713 234.345 296.713 229.519V8.73731C296.713 3.91183 292.801 0 287.976 0Z" fill="#F1A34F"/>
<path d="M283.029 19.5953H142.261V55.941H283.029V19.5953Z" fill="#EBF3FA"/>
<g style="mix-blend-mode:multiply" opacity="0.5">
<path d="M145.997 24.8286H283.029V19.5953H142.263V55.9426H145.997V24.8286Z" fill="#91C8F8"/>
</g>
<path d="M181.981 66.3094H142.933C142.562 66.3094 142.261 66.6104 142.261 66.9815V78.7319C142.261 79.1031 142.562 79.404 142.933 79.404H181.981C182.352 79.404 182.653 79.1031 182.653 78.7319V66.9815C182.653 66.6104 182.352 66.3094 181.981 66.3094Z" fill="#D86713"/>
<path d="M232.17 66.3094H193.123C192.751 66.3094 192.45 66.6104 192.45 66.9815V78.7319C192.45 79.1031 192.751 79.404 193.123 79.404H232.17C232.541 79.404 232.842 79.1031 232.842 78.7319V66.9815C232.842 66.6104 232.541 66.3094 232.17 66.3094Z" fill="#D86713"/>
<path d="M282.357 66.3094H243.31C242.939 66.3094 242.638 66.6104 242.638 66.9815V78.7319C242.638 79.1031 242.939 79.404 243.31 79.404H282.357C282.729 79.404 283.029 79.1031 283.029 78.7319V66.9815C283.029 66.6104 282.729 66.3094 282.357 66.3094Z" fill="#D86713"/>
<path d="M172.013 89.7727H143.767C142.935 89.7727 142.261 90.4468 142.261 91.2784V117.622C142.261 118.454 142.935 119.128 143.767 119.128H172.013C172.845 119.128 173.519 118.454 173.519 117.622V91.2784C173.519 90.4468 172.845 89.7727 172.013 89.7727Z" fill="#D86713"/>
<path d="M208.517 89.7727H180.271C179.44 89.7727 178.765 90.4468 178.765 91.2784V117.622C178.765 118.454 179.44 119.128 180.271 119.128H208.517C209.349 119.128 210.023 118.454 210.023 117.622V91.2784C210.023 90.4468 209.349 89.7727 208.517 89.7727Z" fill="#FAE0B2"/>
<path d="M245.02 89.7727H216.774C215.942 89.7727 215.268 90.4468 215.268 91.2784V117.622C215.268 118.454 215.942 119.128 216.774 119.128H245.02C245.852 119.128 246.526 118.454 246.526 117.622V91.2784C246.526 90.4468 245.852 89.7727 245.02 89.7727Z" fill="#FAE0B2"/>
<path d="M172.013 125.962H143.767C142.935 125.962 142.261 126.636 142.261 127.468V153.812C142.261 154.643 142.935 155.318 143.767 155.318H172.013C172.845 155.318 173.519 154.643 173.519 153.812V127.468C173.519 126.636 172.845 125.962 172.013 125.962Z" fill="#D86713"/>
<path d="M208.517 125.962H180.271C179.44 125.962 178.765 126.636 178.765 127.468V153.812C178.765 154.643 179.44 155.318 180.271 155.318H208.517C209.349 155.318 210.023 154.643 210.023 153.812V127.468C210.023 126.636 209.349 125.962 208.517 125.962Z" fill="#FAE0B2"/>
<path d="M245.02 125.962H216.774C215.942 125.962 215.268 126.636 215.268 127.468V153.812C215.268 154.643 215.942 155.318 216.774 155.318H245.02C245.852 155.318 246.526 154.643 246.526 153.812V127.468C246.526 126.636 245.852 125.962 245.02 125.962Z" fill="#FAE0B2"/>
<path d="M276.662 89.7727H258.144C256.453 89.777 254.833 90.4523 253.64 91.6501C252.448 92.848 251.779 94.4704 251.782 96.161V148.926C251.779 150.616 252.447 152.239 253.64 153.437C254.833 154.635 256.453 155.311 258.144 155.316H276.666C278.356 155.311 279.976 154.635 281.169 153.437C282.362 152.239 283.03 150.616 283.028 148.926V96.161C283.03 94.4699 282.361 92.8469 281.168 91.649C279.974 90.4511 278.353 89.7762 276.662 89.7727Z" fill="#FAE0B2"/>
<path d="M172.013 162.149H143.767C142.935 162.149 142.261 162.823 142.261 163.655V189.999C142.261 190.831 142.935 191.505 143.767 191.505H172.013C172.845 191.505 173.519 190.831 173.519 189.999V163.655C173.519 162.823 172.845 162.149 172.013 162.149Z" fill="#D86713"/>
<path d="M208.517 162.149H180.271C179.44 162.149 178.765 162.823 178.765 163.655V189.999C178.765 190.831 179.44 191.505 180.271 191.505H208.517C209.349 191.505 210.023 190.831 210.023 189.999V163.655C210.023 162.823 209.349 162.149 208.517 162.149Z" fill="#FAE0B2"/>
<path d="M245.02 162.149H216.774C215.942 162.149 215.268 162.823 215.268 163.655V189.999C215.268 190.831 215.942 191.505 216.774 191.505H245.02C245.852 191.505 246.526 190.831 246.526 189.999V163.655C246.526 162.823 245.852 162.149 245.02 162.149Z" fill="#FAE0B2"/>
<path d="M281.524 162.149H253.278C252.446 162.149 251.772 162.823 251.772 163.655V189.999C251.772 190.831 252.446 191.505 253.278 191.505H281.524C282.355 191.505 283.03 190.831 283.03 189.999V163.655C283.03 162.823 282.355 162.149 281.524 162.149Z" fill="#FAE0B2"/>
<path d="M172.013 198.338H143.767C142.935 198.338 142.261 199.012 142.261 199.844V226.186C142.261 227.018 142.935 227.692 143.767 227.692H172.013C172.845 227.692 173.519 227.018 173.519 226.186V199.844C173.519 199.012 172.845 198.338 172.013 198.338Z" fill="#D86713"/>
<path d="M208.517 198.338H180.271C179.44 198.338 178.765 199.012 178.765 199.844V226.186C178.765 227.018 179.44 227.692 180.271 227.692H208.517C209.349 227.692 210.023 227.018 210.023 226.186V199.844C210.023 199.012 209.349 198.338 208.517 198.338Z" fill="#FAE0B2"/>
<path d="M245.02 198.338H216.774C215.942 198.338 215.268 199.012 215.268 199.844V226.186C215.268 227.018 215.942 227.692 216.774 227.692H245.02C245.852 227.692 246.526 227.018 246.526 226.186V199.844C246.526 199.012 245.852 198.338 245.02 198.338Z" fill="#FAE0B2"/>
<path d="M281.524 198.338H253.278C252.446 198.338 251.772 199.012 251.772 199.844V226.186C251.772 227.018 252.446 227.692 253.278 227.692H281.524C282.355 227.692 283.03 227.018 283.03 226.186V199.844C283.03 199.012 282.355 198.338 281.524 198.338Z" fill="#D86713"/>
<path d="M163.243 169.115V170.598L156.023 185.745H153.706L160.897 171.033V170.978H152.788V169.11L163.243 169.115Z" fill="white"/>
<path d="M188.922 181.523C188.922 179.425 190.171 177.942 192.212 177.071L192.186 176.995C190.351 176.125 189.56 174.693 189.56 173.259C189.56 170.624 191.778 168.833 194.685 168.833C197.899 168.833 199.504 170.854 199.504 172.926C199.504 174.334 198.816 175.843 196.777 176.817V176.892C198.842 177.707 200.118 179.176 200.118 181.192C200.118 184.083 197.643 186.027 194.481 186.027C191.013 186.027 188.922 183.954 188.922 181.523ZM197.847 181.422C197.847 179.401 196.445 178.429 194.201 177.789C192.263 178.352 191.217 179.631 191.217 181.215C191.14 182.903 192.416 184.388 194.532 184.388C196.547 184.389 197.847 183.135 197.847 181.419V181.422ZM191.677 173.102C191.677 174.766 192.927 175.662 194.839 176.172C196.266 175.683 197.362 174.663 197.362 173.154C197.362 171.823 196.573 170.442 194.558 170.442C192.697 170.445 191.677 171.673 191.677 173.099V173.102Z" fill="white"/>
<path d="M200.142 212.994C200.142 218.649 198.051 221.771 194.38 221.771C191.141 221.771 188.948 218.727 188.897 213.224C188.897 207.647 191.294 204.578 194.659 204.578C198.154 204.583 200.142 207.699 200.142 212.994ZM191.141 213.251C191.141 217.575 192.467 220.03 194.508 220.03C196.801 220.03 197.899 217.345 197.899 213.097C197.899 209.004 196.853 206.317 194.532 206.317C192.565 206.317 191.141 208.722 191.141 213.251Z" fill="white"/>
<path d="M227.454 184.159C227.943 184.21 228.5 184.159 229.265 184.083C230.561 183.921 231.774 183.358 232.733 182.471C233.829 181.473 234.62 180.014 234.926 178.044H234.849C233.932 179.169 232.606 179.838 230.948 179.838C227.965 179.838 226.054 177.587 226.054 174.747C226.054 171.6 228.324 168.836 231.715 168.836C235.107 168.836 237.198 171.6 237.198 175.851C237.198 179.51 235.973 182.07 234.342 183.655C233.066 184.91 231.307 185.676 229.523 185.882C228.84 185.993 228.147 186.035 227.456 186.009L227.454 184.159ZM228.27 174.59C228.27 176.662 229.519 178.12 231.457 178.12C232.961 178.12 234.134 177.38 234.72 176.381C234.865 176.135 234.935 175.851 234.924 175.566C234.924 172.725 233.878 170.551 231.534 170.551C229.622 170.548 228.271 172.236 228.271 174.59H228.27Z" fill="white"/>
<path d="M159.418 148.848V144.319H151.718V142.835L159.113 132.216H161.534V142.554H163.854V144.319H161.532V148.848H159.418ZM159.418 142.554V137.007C159.418 136.137 159.444 135.267 159.495 134.397H159.418C158.909 135.376 158.5 136.086 158.041 136.853L153.988 142.508V142.559L159.418 142.554Z" fill="white"/>
<path d="M199.021 134.11H192.698L192.06 138.383C192.508 138.315 192.96 138.281 193.412 138.282C194.687 138.282 195.962 138.562 196.982 139.177C198.287 139.919 199.354 141.352 199.354 143.45C199.354 146.699 196.778 149.13 193.182 149.13C191.372 149.13 189.842 148.618 189.052 148.105L189.613 146.392C190.699 146.991 191.917 147.307 193.156 147.312C195.277 147.312 197.083 145.931 197.083 143.706C197.058 141.556 195.629 140.021 192.315 140.021C191.547 140.029 190.781 140.089 190.021 140.2L191.091 132.216H199.021V134.11Z" fill="white"/>
<path d="M235.614 133.804C235.051 133.779 234.488 133.813 233.932 133.906C230.413 134.494 228.549 137.078 228.169 139.817H228.245C228.716 139.206 229.324 138.715 230.019 138.381C230.714 138.048 231.478 137.882 232.249 137.897C235.185 137.897 237.247 140.017 237.247 143.27C237.247 146.314 235.182 149.13 231.74 149.13C228.195 149.13 225.867 146.366 225.867 142.042C225.867 138.768 227.04 136.184 228.673 134.546C230.05 133.189 231.885 132.345 233.976 132.089C234.516 132.005 235.061 131.962 235.608 131.962L235.614 133.804ZM234.978 143.397C234.978 141.019 233.625 139.587 231.552 139.587C230.201 139.587 228.952 140.43 228.34 141.632C228.165 141.936 228.077 142.281 228.084 142.631C228.134 145.368 229.389 147.389 231.732 147.389C233.674 147.389 234.979 145.777 234.979 143.397H234.978Z" fill="white"/>
<path d="M157.352 98.9554H157.302L154.421 100.517L153.987 98.8021L157.607 96.8575H159.52V113.497H157.352V98.9554Z" fill="white"/>
<path d="M189.127 113.489V112.107L190.886 110.393C195.127 106.35 197.031 104.194 197.057 101.693C197.057 100.004 196.242 98.4432 193.767 98.4432C192.263 98.4432 191.013 99.2115 190.248 99.851L189.535 98.2653C190.85 97.1653 192.512 96.5665 194.227 96.5753C197.796 96.5753 199.3 99.0321 199.3 101.412C199.3 104.482 197.082 106.959 193.591 110.342L192.264 111.569V111.621H199.71V113.489H189.127Z" fill="white"/>
<path d="M226.691 110.905C227.803 111.567 229.067 111.928 230.361 111.954C233.244 111.954 234.136 110.111 234.113 108.729C234.089 106.401 231.992 105.403 229.829 105.403H228.58V103.714H229.829C231.461 103.714 233.528 102.871 233.528 100.9C233.528 99.5708 232.686 98.393 230.621 98.393C229.294 98.393 228.01 98.9819 227.306 99.4925L226.718 97.8612C227.586 97.2217 229.268 96.5806 231.053 96.5806C234.315 96.5806 235.797 98.5251 235.797 100.546C235.797 102.261 234.777 103.719 232.736 104.461V104.514C234.777 104.921 236.435 106.458 236.435 108.786C236.435 111.447 234.369 113.775 230.391 113.775C228.529 113.775 226.898 113.187 226.081 112.649L226.691 110.905Z" fill="white"/>
<path d="M157.891 221.302C158.995 221.302 159.89 220.404 159.89 219.296C159.89 218.187 158.995 217.289 157.891 217.289C156.788 217.289 155.893 218.187 155.893 219.296C155.893 220.404 156.788 221.302 157.891 221.302Z" fill="white"/>
<path d="M279.276 123.603H268.754V113.045H266.048V123.603H255.528V126.318H266.048V136.875H268.754V126.318H279.276V123.603Z" fill="white"/>
<path d="M237.9 219.265L232.329 213.676L237.9 208.085L236.468 206.648L230.897 212.239L225.326 206.648L223.894 208.085L229.465 213.676L223.894 219.265L225.326 220.702L230.897 215.113L236.468 220.702L237.9 219.265Z" fill="white"/>
<path d="M275.561 176.25H257.941V178.958H275.561V176.25Z" fill="white"/>
<path d="M276.21 207.542H258.591V210.25H276.21V207.542Z" fill="white"/>
<path d="M276.21 214.358H258.591V217.066H276.21V214.358Z" fill="white"/>
<path d="M318.718 233.77C316.498 234.104 314.231 233.919 312.094 233.229C312.538 230.607 312.982 227.977 313.417 225.356C313.45 225.014 313.564 224.685 313.748 224.395C314.093 224.016 314.569 223.78 315.079 223.734C316.935 223.419 319.718 223.314 319.525 225.598C319.291 228.276 318.984 231.003 318.718 233.77Z" fill="#F4A086"/>
<path d="M329.35 223.282C327.815 224.915 325.92 226.166 323.816 226.937C322.584 224.571 321.347 222.204 320.104 219.838C319.847 219.487 319.737 219.049 319.797 218.618C319.857 218.187 320.083 217.797 320.427 217.53C321.694 216.127 323.824 214.303 325.05 216.264C326.51 218.595 327.914 220.959 329.35 223.282Z" fill="#F4A086"/>
<path fill-rule="evenodd" clip-rule="evenodd" d="M297.847 123.326C300.428 118.76 320.799 125.068 320.097 133.007C319.201 143.14 316.313 153.918 312.884 163.97C312.739 164.398 312.594 164.825 312.441 165.253C310.584 170.487 310.772 176.229 312.965 181.331C317.749 192.319 320.75 207.244 325.776 215.949L319.774 220.661C318.725 219.66 296.007 181.251 294.837 176.104C293.958 172.207 295.757 126.956 297.847 123.326Z" fill="#233862"/>
<path fill-rule="evenodd" clip-rule="evenodd" d="M333.497 137.767C333.36 140.13 327.317 138.622 325.018 138.622C306.051 138.622 295.08 132.458 297.701 123.745C300.396 114.798 317.37 116.242 326.236 119.123C328.14 119.744 330.924 120.349 332.231 122.132C334.126 124.738 333.997 129.272 333.497 137.767Z" fill="#0A3C5F"/>
<path d="M305.697 75.6477C305.084 84.3687 303.374 93.2995 298.436 100.528C297.379 102.085 295.847 103.707 293.967 103.505C293.423 103.42 292.905 103.215 292.45 102.906C291.995 102.596 291.615 102.189 291.337 101.714C290.783 100.757 290.419 99.7024 290.264 98.6079C288.65 90.0886 291.272 81.4079 293.862 73.1468C294.927 69.7342 296.347 63.7078 299.816 61.8522C303.422 59.9402 305.245 65.886 305.576 68.2579C305.872 70.7103 305.913 73.1869 305.697 75.6477Z" fill="#FBC191"/>
<path fill-rule="evenodd" clip-rule="evenodd" d="M306.117 63.2236C305.948 61.7795 305.561 60.0853 304.222 59.456C302.882 58.8268 301.293 59.7626 300.188 60.7468C293.532 66.7168 291.007 75.1474 289.805 84.1992L305.763 85.1834C306.833 77.9099 306.953 70.5279 306.117 63.2236Z" fill="white"/>
<path fill-rule="evenodd" clip-rule="evenodd" d="M323.591 181.783C322.696 184.139 321.413 186.785 319.267 187.43C317.783 187.882 313.224 185.01 312.264 183.832C311.304 182.654 307.714 135.725 309.328 132.321C310.38 130.177 311.928 128.313 313.842 126.885C315.757 125.457 317.984 124.505 320.34 124.108C326.673 123.116 333.611 125.052 333.627 132.983C333.627 143.115 331.739 153.894 329.222 163.946C327.712 170.001 325.831 175.958 323.591 181.783Z" fill="#2B478B"/>
<path fill-rule="evenodd" clip-rule="evenodd" d="M311.659 175.345C313.975 170.706 321.51 167.036 324.567 175.571C329.472 189.286 323.268 209.866 320.316 225.743H312.7C312.28 224.299 310.377 177.927 311.659 175.345Z" fill="#2B478B"/>
<path fill-rule="evenodd" clip-rule="evenodd" d="M299.791 97.2607C298.363 90.2419 295.935 83.3926 294.951 76.3255C294.467 73.0178 293.765 68.9437 295.701 66.0878C297.436 63.5223 304.914 53.4298 314.91 53.4298C329.157 53.4298 335.168 59.2384 337.176 66.112C338.604 74.7926 338.112 86.6196 335.563 94.9131C333.07 102.892 335.716 111.387 337.983 129.006H296.839C296.911 119.011 301.203 104.271 299.791 97.2607Z" fill="white"/>
<path d="M297.822 61.1259C296.725 61.1259 288.383 93.5331 291.546 98.656C293.159 101.238 295.846 101.286 298.226 99.9791C301.534 98.18 302.929 61.1259 297.822 61.1259Z" fill="#FBC191"/>
<path d="M342.097 87.4906C341.56 79.5716 338.735 71.979 333.965 65.6356C333.109 64.5062 331.891 63.3041 330.504 63.6026C330.13 63.705 329.783 63.889 329.488 64.1415C329.194 64.394 328.959 64.7087 328.801 65.0628C328.489 65.7727 328.288 66.5264 328.204 67.2975C326.849 76.2202 326.776 85.2881 326.704 94.3076C326.563 97.0826 326.777 99.8642 327.341 102.585C327.927 105.327 329.544 107.739 331.859 109.321C333.093 110.088 335.215 110.806 336.635 110.08C337.772 109.499 338.313 107.563 338.781 106.498C340.43 102.691 341.496 98.6577 341.943 94.5335C342.2 92.1949 342.251 89.8382 342.097 87.4906Z" fill="#F7B690"/>
<path fill-rule="evenodd" clip-rule="evenodd" d="M328.785 62.9328C329.132 61.5291 329.729 59.9156 331.125 59.5445C332.521 59.1733 334.86 60.8595 335.812 62.0454C341.589 69.2416 343.88 77.9788 343.928 87.1999L326.325 84.82C326.193 77.4485 327.02 70.0911 328.785 62.9328Z" fill="white"/>
<path d="M302.47 97.7596C301.259 98.4857 300.993 100.236 301.558 101.527C302.123 102.818 328.181 110.773 333.142 110.869C334.651 110.869 336.369 110.821 337.321 109.635C338.128 108.57 337.983 107.045 337.604 105.755C337.001 103.419 335.796 101.283 334.11 99.5586C332.941 98.4857 331.513 98.9375 330.077 98.8971C324.752 98.7438 303.244 97.2917 302.47 97.7596Z" fill="#F7B690"/>
<path fill-rule="evenodd" clip-rule="evenodd" d="M301.615 43.8536C302.236 44.5474 302.785 44.2166 302.583 43.3211C301.921 40.4652 301.736 40.0296 302.535 37.1979C302.97 35.6328 303.18 35.4714 302.43 35.1165C299.953 33.9386 296.5 38.1498 301.615 43.8536Z" fill="#222B56"/>
<path d="M310.861 43.4419C311.837 39.1339 315.096 38.1254 316.992 39.1581C318.202 47.2256 319.412 50.8076 322.599 55.2044C318.67 57.7215 311.966 57.2535 310.498 55.2044C310.457 54.559 310.352 45.6686 310.861 43.4419Z" fill="#FBC191"/>
<path d="M312.392 34.2367C311.511 33.532 310.467 33.0606 309.356 32.866C308.245 32.6714 307.103 32.7599 306.036 33.1234C304.968 33.4868 304.009 34.1134 303.247 34.9453C302.486 35.7772 301.946 36.7876 301.678 37.8832C300.517 42.3607 304.357 50.5895 306.406 52.0659C309.988 54.6314 315.587 49.7989 316.006 47.2254C316.619 43.5547 315.45 36.8021 312.392 34.2367Z" fill="#F7B690"/>
<path fill-rule="evenodd" clip-rule="evenodd" d="M313.877 45.7977C313.943 46.0268 313.963 46.2669 313.936 46.5038C313.908 46.7407 313.833 46.9696 313.716 47.1772C313.58 47.3223 313.412 47.433 313.226 47.5004C313.039 47.5677 312.839 47.5897 312.643 47.5645C312.252 47.5081 311.87 47.4024 311.505 47.2499C309.902 46.7033 308.179 46.6112 306.527 46.9836C305.763 47.0925 305.068 47.4875 304.583 48.0889C304.27 48.6362 304.14 49.2695 304.212 49.896C304.241 50.6881 304.442 51.4643 304.801 52.1711C305.158 52.8891 305.754 53.4599 306.487 53.7846C307.545 54.1084 308.681 54.0686 309.714 53.6716C311.623 53.1459 313.361 52.1308 314.756 50.727C315.447 50.0232 315.988 49.1876 316.349 48.27C316.709 47.3524 316.881 46.3717 316.854 45.3863C316.795 44.4061 316.502 43.4544 315.999 42.611C315.591 41.8602 314.939 41.2711 314.151 40.9411C312.925 40.4812 313.183 41.53 313.296 42.2641C313.506 43.4581 313.691 44.644 313.877 45.7977Z" fill="#222B56"/>
<path fill-rule="evenodd" clip-rule="evenodd" d="M311.084 35.7212C311.036 36.415 314.311 44.8698 314.521 44.7245C315.328 44.2001 315.925 41.4975 317.563 41.3039C318.087 41.2313 318.87 41.433 318.684 40.3923C317.53 33.785 317.877 34.0673 316.57 33.6962C313.723 32.8895 311.181 34.503 311.084 35.7212Z" fill="#222B56"/>
<path fill-rule="evenodd" clip-rule="evenodd" d="M317.483 30.2111C311.384 27.4843 302.3 27.7908 300.041 29.7674C296.685 32.7362 300.71 38.5691 302.203 38.6417C302.889 38.6417 303.381 38.0447 303.865 37.5606C306.14 35.2614 308.762 36.1649 310.803 36.1488C314.425 36.1165 322.686 32.5345 317.483 30.2111Z" fill="#222B56"/>
<path d="M318.799 40.0214C319.103 41.0778 318.987 42.2106 318.476 43.1839C317.008 45.9268 314.442 43.1032 314.507 41.0218C314.58 38.537 317.96 37.1897 318.799 40.0214Z" fill="#F7B690"/>
<path fill-rule="evenodd" clip-rule="evenodd" d="M321.841 227.316C321.626 226.942 321.525 226.513 321.551 226.082C321.635 225.808 321.798 225.564 322.018 225.38C322.239 225.197 322.508 225.082 322.793 225.049C323.358 224.944 323.939 225.049 324.512 224.977C325.543 224.868 326.491 224.358 327.15 223.557C327.69 222.887 327.803 221.733 328.667 221.378C329.53 221.023 330.32 221.564 330.99 221.887C332.144 222.435 333.281 223.016 334.427 223.581C334.685 223.7 334.934 223.84 335.169 224L331.345 228.567C330.67 228.382 330.022 228.111 329.417 227.76C329.935 228.222 330.345 228.792 330.619 229.43L323.64 238.675L320.68 235.981C321.605 234.76 322.198 233.32 322.401 231.801C322.605 230.283 322.412 228.738 321.841 227.316Z" fill="#2B478B"/>
<path fill-rule="evenodd" clip-rule="evenodd" d="M319.735 235.327C320.821 235.184 321.92 235.163 323.011 235.263H323.188L323.616 238.683H318.21C317.922 238.392 317.742 238.01 317.702 237.602C317.63 236.481 318.67 235.577 319.735 235.327Z" fill="#2B478B"/>
<path fill-rule="evenodd" clip-rule="evenodd" d="M308.997 237.586C308.954 237.175 309.012 236.76 309.165 236.376C309.318 235.992 309.562 235.652 309.876 235.383C310.344 235.125 311.078 233.294 312.046 230.615C312.49 229.397 314.967 229.05 316.201 231.156C316.596 231.842 316.967 232.285 317.419 232.269C317.871 232.253 318.226 231.608 318.581 232.035C318.892 232.694 319.057 233.412 319.065 234.141C319.21 235.383 319.331 236.626 319.468 237.868C319.468 238.142 319.525 238.425 319.533 238.715H309.223C309.083 238.355 309.006 237.972 308.997 237.586Z" fill="#2B478B"/>
<path d="M300.462 95.5572C299.89 95.1861 298.954 94.9118 298.679 95.5572C298.627 95.7539 298.634 95.9618 298.7 96.1543C298.766 96.3468 298.888 96.5153 299.051 96.6383C299.379 96.8801 299.654 97.1878 299.857 97.5418C299.935 97.8804 299.881 98.2359 299.705 98.5358C299.53 98.8357 299.247 99.0573 298.913 99.1553C298.233 99.3286 297.519 99.3118 296.848 99.1069L291.281 97.9775C290.475 97.8161 289.531 97.7435 289.119 98.4131C289.014 98.6739 288.971 98.9559 288.995 99.2363C289.019 99.5166 289.109 99.7874 289.257 100.027C290.257 102.136 292.049 103.766 294.243 104.563C296.437 105.36 298.857 105.261 300.979 104.286C302.27 103.741 303.35 102.789 304.052 101.576C305.884 98.1711 302.891 97.0981 300.462 95.5572Z" fill="#F7B690"/>
<path d="M298.564 56.4551C299.265 55.7946 300.13 55.334 301.07 55.1211C302.009 54.9083 302.988 54.9511 303.905 55.245C305.099 55.6403 306.229 56.7052 306.075 57.9557C305.994 58.4337 305.738 58.8642 305.355 59.1627C304.973 59.4612 304.494 59.6062 304.01 59.5692C304.01 60.739 302.905 61.5699 301.929 62.2153L300.162 63.3851C299.679 63.7944 299.059 64.005 298.427 63.9741C295.523 63.4093 297.258 57.7137 298.564 56.4551Z" fill="#F7B690"/>
</svg>
